<svg width="1000" height="692" viewBox="0 0 1000 692" fill="none" xmlns="http://www.w3.org/2000/svg">
  <rect width="1000" height="692" rx="40" fill="#F6F3EE"/>
  <rect x="48" y="54" width="904" height="590" rx="28" fill="#FBFAF7" stroke="#DDD6CB" stroke-width="2"/>

  <text x="300" y="112" fill="#1B1B1B" font-family="Arial, sans-serif" font-size="30" font-weight="600">Abandonment Rate by Customer Type</text>

  <path d="M200 156H882V630" stroke="#666666" stroke-width="3"/>

  <text x="76" y="586" fill="#262626" font-family="Arial, sans-serif" font-size="22" font-weight="600">Distributor</text>
  <text x="76" y="518" fill="#262626" font-family="Arial, sans-serif" font-size="22" font-weight="600">Institution</text>
  <text x="100" y="450" fill="#262626" font-family="Arial, sans-serif" font-size="22" font-weight="600">Clinic</text>
  <text x="74" y="382" fill="#262626" font-family="Arial, sans-serif" font-size="22" font-weight="600">Attraction</text>
  <text x="28" y="314" fill="#262626" font-family="Arial, sans-serif" font-size="22" font-weight="600">Hot Beverage</text>
  <text x="72" y="246" fill="#262626" font-family="Arial, sans-serif" font-size="22" font-weight="600">Workplace</text>
  <text x="116" y="178" fill="#262626" font-family="Arial, sans-serif" font-size="22" font-weight="600">Hotel</text>
  <text x="120" y="110" fill="#262626" font-family="Arial, sans-serif" font-size="22" font-weight="600">Store</text>
  <text x="80" y="78" fill="#262626" font-family="Arial, sans-serif" font-size="22" font-weight="600">Restaurant</text>

  <rect x="200" y="554" width="400" height="42" fill="#E97D69"/>
  <rect x="200" y="486" width="536" height="42" fill="#D14F8B"/>
  <rect x="200" y="418" width="544" height="42" fill="#C1536B"/>
  <rect x="200" y="350" width="620" height="42" fill="#A65B49"/>
  <rect x="200" y="282" width="720" height="42" fill="#87675B"/>
  <rect x="200" y="214" width="724" height="42" fill="#5D7B8D"/>
  <rect x="200" y="146" width="744" height="42" fill="#7D6777"/>
  <rect x="200" y="78" width="744" height="42" fill="#A53B46"/>
  <rect x="200" y="10" width="780" height="42" fill="#8B3516"/>

  <text x="194" y="652" fill="#262626" font-family="Arial, sans-serif" font-size="20" font-weight="600">0</text>
  <text x="270" y="652" fill="#262626" font-family="Arial, sans-serif" font-size="20" font-weight="600">2</text>
  <text x="350" y="652" fill="#262626" font-family="Arial, sans-serif" font-size="20" font-weight="600">4</text>
  <text x="432" y="652" fill="#262626" font-family="Arial, sans-serif" font-size="20" font-weight="600">6</text>
  <text x="512" y="652" fill="#262626" font-family="Arial, sans-serif" font-size="20" font-weight="600">8</text>
  <text x="590" y="652" fill="#262626" font-family="Arial, sans-serif" font-size="20" font-weight="600">10</text>
  <text x="682" y="652" fill="#262626" font-family="Arial, sans-serif" font-size="20" font-weight="600">12</text>
  <text x="770" y="652" fill="#262626" font-family="Arial, sans-serif" font-size="20" font-weight="600">14</text>
  <text x="854" y="652" fill="#262626" font-family="Arial, sans-serif" font-size="20" font-weight="600">16</text>

  <text x="392" y="684" fill="#262626" font-family="Arial, sans-serif" font-size="24" font-weight="600">Abandonment Rate (%)</text>
  <g transform="translate(42 506) rotate(-90)">
    <text x="0" y="0" fill="#262626" font-family="Arial, sans-serif" font-size="18" font-weight="600">Customer Type</text>
  </g>
</svg>
