<svg width="1000" height="760" viewBox="0 0 1000 760" fill="none" xmlns="http://www.w3.org/2000/svg">
  <rect width="1000" height="760" rx="40" fill="#F7F5F0"/>
  <rect x="4" y="10" width="988" height="742" rx="28" fill="#FBFAF7" stroke="#E0D9CF" stroke-width="2"/>

  <rect x="6" y="78" width="414" height="662" rx="18" fill="none" stroke="#8EB0E5" stroke-width="2" stroke-dasharray="8 8"/>
  <rect x="438" y="78" width="162" height="662" rx="18" fill="none" stroke="#B5D59B" stroke-width="2" stroke-dasharray="8 8"/>
  <rect x="620" y="78" width="184" height="662" rx="18" fill="none" stroke="#EBCB69" stroke-width="2" stroke-dasharray="8 8"/>
  <rect x="822" y="78" width="170" height="662" rx="18" fill="none" stroke="#C9B2E1" stroke-width="2" stroke-dasharray="8 8"/>

  <rect x="6" y="16" width="414" height="54" rx="14" fill="#EAF1FD" stroke="#8EB0E5" stroke-width="2"/>
  <rect x="438" y="16" width="162" height="54" rx="14" fill="#EEF7E7" stroke="#B5D59B" stroke-width="2"/>
  <rect x="620" y="16" width="184" height="54" rx="14" fill="#FFF8DF" stroke="#EBCB69" stroke-width="2"/>
  <rect x="822" y="16" width="170" height="54" rx="14" fill="#F3ECFA" stroke="#C9B2E1" stroke-width="2"/>

  <text x="72" y="53" fill="#111111" font-family="Arial, sans-serif" font-size="26" font-weight="700">Source Data and Extraction</text>
  <text x="490" y="53" fill="#111111" font-family="Arial, sans-serif" font-size="26" font-weight="700">Load</text>
  <text x="662" y="53" fill="#111111" font-family="Arial, sans-serif" font-size="26" font-weight="700">Transform</text>
  <text x="866" y="53" fill="#111111" font-family="Arial, sans-serif" font-size="26" font-weight="700">Analytics</text>

  <g transform="translate(20 322)">
    <path d="M6 16C12 5 30 2 40 10C48 18 44 32 28 34C16 36 0 28 6 16Z" stroke="#7B95BC" stroke-width="5" stroke-linecap="round"/>
    <text x="44" y="18" fill="#5C7290" font-family="Arial, sans-serif" font-size="16">visualcrossing</text>
    <text x="18" y="58" fill="#222222" font-family="Arial, sans-serif" font-size="24">Weather API</text>
  </g>

  <path d="M110 353H176" stroke="#111111" stroke-width="3"/>
  <path d="M176 353L164 345V361L176 353Z" fill="#111111"/>

  <g transform="translate(208 98)">
    <rect x="36" y="0" width="34" height="46" rx="3" fill="#FFFFFF" stroke="#222222" stroke-width="3"/>
    <rect x="26" y="10" width="34" height="46" rx="3" fill="#FFFFFF" stroke="#222222" stroke-width="3"/>
    <rect x="16" y="20" width="34" height="46" rx="3" fill="#FFFFFF" stroke="#222222" stroke-width="3"/>
    <text x="0" y="126" fill="#222222" font-family="Arial, sans-serif" font-size="24">Batch Process</text>
  </g>

  <path d="M186 353V212H276" stroke="#111111" stroke-width="3"/>
  <path d="M276 212L264 204V220L276 212Z" fill="#111111"/>
  <path d="M334 212H392V353" stroke="#111111" stroke-width="3"/>

  <g transform="translate(180 290)">
    <path d="M64 36C80 16 108 10 130 18C122 36 122 58 132 78C100 78 80 64 64 36Z" fill="#D45B3E"/>
    <path d="M64 36C54 16 34 2 4 4C10 30 24 48 46 62C54 54 60 46 64 36Z" fill="#58BDD5"/>
    <path d="M64 36C42 42 24 58 12 82C42 92 72 90 98 80C84 62 72 50 64 36Z" fill="#71AE56"/>
    <path d="M64 36C86 42 106 56 120 80C148 68 160 48 162 18C132 18 110 24 64 36Z" fill="#F0B43A"/>
    <text x="122" y="24" fill="#666666" font-family="Arial, sans-serif" font-size="12">Apache</text>
    <text x="120" y="52" fill="#333333" font-family="Arial, sans-serif" font-size="32">Airflow</text>
  </g>

  <path d="M336 353H438" stroke="#111111" stroke-width="3"/>
  <path d="M438 353L426 345V361L438 353Z" fill="#111111"/>

  <g transform="translate(242 560)">
    <text x="0" y="0" fill="#111111" font-family="Arial, sans-serif" font-size="28" font-weight="700">UDOT</text>
    <rect x="18" y="18" width="86" height="104" rx="4" fill="#86BAC7"/>
    <rect x="34" y="36" width="54" height="48" fill="#FFFFFF"/>
    <path d="M42 48H80" stroke="#111111" stroke-width="3"/>
    <path d="M42 60H80" stroke="#111111" stroke-width="3"/>
    <path d="M42 72H80" stroke="#111111" stroke-width="3"/>
    <text x="24" y="148" fill="#FFFFFF" font-family="Arial, sans-serif" font-size="18">Flat File</text>
  </g>

  <path d="M346 682H346V540" stroke="#111111" stroke-width="3"/>
  <path d="M346 540L338 552H354L346 540Z" fill="#111111"/>

  <g transform="translate(472 248)">
    <text x="12" y="26" fill="#466AA8" font-family="Arial, sans-serif" font-size="32" font-weight="700">Python</text>
    <text x="72" y="78" fill="#111111" font-family="Arial, sans-serif" font-size="30" font-weight="700">+</text>
    <text x="40" y="132" fill="#E6A62E" font-family="Arial, sans-serif" font-size="34" font-weight="700">colab</text>
  </g>

  <path d="M538 353H620" stroke="#111111" stroke-width="3"/>
  <path d="M620 353L608 345V361L620 353Z" fill="#111111"/>

  <g transform="translate(468 486)">
    <path d="M34 12L58 26V54L34 68L10 54V26L34 12Z" fill="#E95A42"/>
    <path d="M10 26L34 40L58 26" fill="#36A856"/>
    <path d="M10 54L34 40L58 54" fill="#4B81F5"/>
    <path d="M34 40V68" stroke="#FBFAF7" stroke-width="2"/>
    <text x="-8" y="110" fill="#555555" font-family="Arial, sans-serif" font-size="24">Google Cloud</text>
  </g>

  <g transform="translate(662 190)">
    <path d="M32 14H66L84 44L66 74H32L14 44L32 14Z" fill="#5A79EB"/>
    <circle cx="49" cy="44" r="13" stroke="#FFFFFF" stroke-width="3"/>
    <path d="M49 34V52" stroke="#FFFFFF" stroke-width="3" stroke-linecap="round"/>
    <path d="M43 44H55" stroke="#FFFFFF" stroke-width="3" stroke-linecap="round"/>
    <path d="M58 54L68 64" stroke="#FFFFFF" stroke-width="3" stroke-linecap="round"/>
    <text x="96" y="34" fill="#666666" font-family="Arial, sans-serif" font-size="24">Google</text>
    <text x="96" y="66" fill="#666666" font-family="Arial, sans-serif" font-size="24">BigQuery</text>
  </g>

  <path d="M662 370H760" stroke="#999999" stroke-width="2"/>

  <g transform="translate(670 436)">
    <text x="12" y="26" fill="#466AA8" font-family="Arial, sans-serif" font-size="32" font-weight="700">Python</text>
    <text x="72" y="78" fill="#111111" font-family="Arial, sans-serif" font-size="30" font-weight="700">+</text>
    <text x="40" y="132" fill="#E6A62E" font-family="Arial, sans-serif" font-size="34" font-weight="700">colab</text>
  </g>

  <path d="M786 353H842" stroke="#111111" stroke-width="3"/>
  <path d="M842 353L830 345V361L842 353Z" fill="#111111"/>

  <g transform="translate(874 308)">
    <rect x="10" y="28" width="18" height="58" rx="2" fill="#F3D76B"/>
    <rect x="34" y="12" width="18" height="74" rx="2" fill="#EDC24E"/>
    <rect x="58" y="0" width="18" height="86" rx="2" fill="#E0B137"/>
    <text x="4" y="126" fill="#222222" font-family="Arial, sans-serif" font-size="26">Power BI</text>
  </g>
</svg>
