<svg width="1000" height="590" viewBox="0 0 1000 590" fill="none" xmlns="http://www.w3.org/2000/svg">
  <rect width="1000" height="590" rx="40" fill="#F4F1EC"/>
  <rect x="52" y="56" width="896" height="500" rx="28" fill="#FBFAF7" stroke="#E4DFD6"/>
  <text x="96" y="136" fill="#111111" font-family="Arial, sans-serif" font-size="34" font-weight="500">Tota Engagements by Month</text>

  <path d="M96 212H916" stroke="#E6E0D6" stroke-width="2"/>
  <path d="M96 352H916" stroke="#E6E0D6" stroke-width="2"/>
  <path d="M96 516H916" stroke="#E6E0D6" stroke-width="2"/>

  <text x="52" y="218" fill="#7D7A74" font-family="Arial, sans-serif" font-size="22">20K</text>
  <text x="52" y="358" fill="#7D7A74" font-family="Arial, sans-serif" font-size="22">10K</text>
  <text x="62" y="522" fill="#7D7A74" font-family="Arial, sans-serif" font-size="22">0K</text>

  <path d="M170 460L304 464L472 404L642 194L820 500L820 516L170 516Z" fill="#E68FA3" fill-opacity="0.82"/>
  <path d="M170 460L304 464L472 404L642 194L820 500" stroke="#F23E67" stroke-width="5" stroke-linecap="round" stroke-linejoin="round"/>

  <text x="154" y="552" fill="#333333" font-family="Arial, sans-serif" font-size="24">April</text>
  <text x="284" y="552" fill="#333333" font-family="Arial, sans-serif" font-size="24">May</text>
  <text x="458" y="552" fill="#333333" font-family="Arial, sans-serif" font-size="24">June</text>
  <text x="628" y="552" fill="#333333" font-family="Arial, sans-serif" font-size="24">July</text>
  <text x="790" y="552" fill="#333333" font-family="Arial, sans-serif" font-size="24">August</text>
</svg>
